<svg width="20" height="20" viewBox="0 0 20 20" fill="none" xmlns="http://www.w3.org/2000/svg">
<path d="M10.7566 14.2178C11.3046 14.2177 11.7767 14.2177 12.1548 14.2686C12.56 14.323 12.9484 14.4459 13.2635 14.7609C13.5785 15.076 13.7014 15.4644 13.7559 15.8696C13.7907 16.1286 13.8016 16.4317 13.8051 16.7731C13.8067 16.9291 13.8074 17.0072 13.8556 17.0548C13.9038 17.1025 13.9812 17.1025 14.136 17.1025H14.6603C15.0992 17.1025 15.4551 17.4716 15.4551 17.9268C15.4551 18.382 15.0992 18.751 14.6603 18.751L5.12291 18.751C4.68396 18.751 4.32813 18.382 4.32813 17.9268C4.32813 17.4716 4.68396 17.1025 5.12291 17.1025H5.64723C5.80202 17.1025 5.87941 17.1025 5.92759 17.0548C5.97577 17.0072 5.97656 16.9291 5.97813 16.7731C5.98157 16.4317 5.99253 16.1286 6.02734 15.8696C6.08182 15.4644 6.20468 15.076 6.51974 14.7609C6.83479 14.4459 7.22322 14.323 7.62843 14.2686C8.00652 14.2177 8.47873 14.2177 9.02669 14.2178H10.7566Z" fill="#FDC543"/>
<path d="M10.717 14.2178C10.717 14.673 10.348 15.042 9.89281 15.042C9.43761 15.042 9.0686 14.673 9.0686 14.2178L9.0686 11.8743C9.0686 11.6167 9.0686 11.4879 8.98514 11.4406C8.81033 11.3413 8.39732 11.6942 8.24086 11.7876C7.66322 12.1332 6.92276 12.3466 6.3447 11.9213C5.76967 11.4983 5.74629 10.7289 5.89713 10.0717L6.24748 8.54433C6.26794 8.44538 6.22651 8.28475 6.15468 8.21233L4.92838 6.97589C4.49052 6.53442 4.19508 5.93782 4.38857 5.3269C4.5828 4.71363 5.17035 4.39881 5.78435 4.29563L7.35231 4.03297C7.45616 4.01558 7.56105 3.9371 7.60726 3.84294L8.47812 2.08684C8.7589 1.52358 9.23456 1.03027 9.89112 1.03027C10.5485 1.03027 11.0229 1.52456 11.3012 2.08844L12.1725 3.84542C12.2198 3.93418 12.3243 4.00963 12.4221 4.03144L13.9994 4.29568C14.6128 4.39875 15.2011 4.71301 15.3964 5.32579C15.5915 5.93778 15.2942 6.53585 14.8536 6.97739L13.6288 8.21233C13.557 8.28476 13.5156 8.44536 13.536 8.54431L13.8865 10.0723C14.0365 10.7287 14.0164 11.5 13.4404 11.9233C12.8619 12.3486 12.1201 12.1315 11.5429 11.7878C11.3866 11.6945 10.9751 11.3427 10.8005 11.4418C10.717 11.4892 10.717 11.618 10.717 11.8756L10.717 14.2178Z" fill="#FDC543"/>
</svg>
