<svg width="38" height="38" viewBox="0 0 38 38" fill="none" xmlns="http://www.w3.org/2000/svg">
<path d="M19.0027 19.5855C23.3436 19.5855 26.8921 16.037 26.8921 11.6961C26.8921 7.35515 23.3436 3.80664 19.0027 3.80664C14.6617 3.80664 11.1133 7.35515 11.1133 11.6961C11.1133 16.037 14.6618 19.5855 19.0027 19.5855Z" fill="url(#paint0_linear_52660_9062)"/>
<path d="M32.5398 25.8907C32.3331 25.3739 32.0575 24.8916 31.7474 24.4437C30.1626 22.1009 27.7166 20.5506 24.9605 20.1717C24.616 20.1372 24.237 20.2061 23.9614 20.4128C22.5144 21.4808 20.7919 22.032 19.0003 22.032C17.2088 22.032 15.4862 21.4808 14.0393 20.4128C13.7636 20.2061 13.3846 20.1027 13.0402 20.1717C10.284 20.5506 7.80352 22.1009 6.2532 24.4437C5.94314 24.8916 5.6675 25.4084 5.46084 25.8907C5.35751 26.0974 5.39193 26.3385 5.49526 26.5453C5.7709 27.0276 6.11538 27.51 6.42545 27.9234C6.90775 28.578 7.42454 29.1636 8.01025 29.7148C8.49255 30.1971 9.04377 30.645 9.59505 31.0929C12.3167 33.1256 15.5896 34.1935 18.9659 34.1935C22.3422 34.1935 25.6151 33.1255 28.3368 31.0929C28.888 30.6795 29.4392 30.1971 29.9216 29.7148C30.4728 29.1636 31.024 28.5779 31.5064 27.9234C31.8508 27.4755 32.161 27.0276 32.4365 26.5453C32.6087 26.3385 32.6431 26.0973 32.5398 25.8907Z" fill="url(#paint1_linear_52660_9062)"/>
<path d="M32.3442 6.16309C32.518 6.16309 32.6685 6.28347 32.7067 6.45294L32.8973 7.2991C33.0274 7.87687 33.4786 8.32806 34.0564 8.45821L34.9025 8.64881C35.072 8.68699 35.1924 8.83751 35.1924 9.01123C35.1924 9.18495 35.072 9.33547 34.9025 9.37365L34.0564 9.56425C33.4786 9.6944 33.0274 10.1456 32.8973 10.7234L32.7067 11.5695C32.6685 11.739 32.518 11.8594 32.3442 11.8594C32.1705 11.8594 32.02 11.739 31.9818 11.5695L31.7912 10.7234C31.6611 10.1456 31.2099 9.6944 30.6321 9.56425L29.786 9.37365C29.6165 9.33547 29.4961 9.18495 29.4961 9.01123C29.4961 8.83751 29.6165 8.68699 29.786 8.64881L30.6321 8.45821C31.2099 8.32806 31.6611 7.87687 31.7912 7.2991L31.9818 6.45294C32.02 6.28347 32.1705 6.16309 32.3442 6.16309Z" fill="url(#paint2_linear_52660_9062)"/>
<path d="M4.66709 14.8608C4.76496 14.8608 4.84977 14.9287 4.87127 15.0241L4.97866 15.5008C5.05198 15.8264 5.30617 16.0805 5.63168 16.1539L6.10839 16.2613C6.20386 16.2828 6.27169 16.3676 6.27169 16.4654C6.27169 16.5633 6.20386 16.6481 6.10839 16.6696L5.63168 16.777C5.30617 16.8503 5.05198 17.1045 4.97866 17.43L4.87127 17.9067C4.84977 18.0022 4.76496 18.07 4.66709 18.07C4.56922 18.07 4.48442 18.0022 4.46292 17.9067L4.35553 17.43C4.28221 17.1045 4.02801 16.8503 3.70251 16.777L3.2258 16.6696C3.13032 16.6481 3.0625 16.5633 3.0625 16.4654C3.0625 16.3676 3.13032 16.2828 3.2258 16.2613L3.70251 16.1539C4.02801 16.0805 4.28221 15.8264 4.35553 15.5009L4.46292 15.0241C4.48442 14.9287 4.56922 14.8608 4.66709 14.8608Z" fill="url(#paint3_linear_52660_9062)"/>
<defs>
<linearGradient id="paint0_linear_52660_9062" x1="19.0027" y1="3.80664" x2="19.0027" y2="19.5855" gradientUnits="userSpaceOnUse">
<stop stop-color="#3447C4"/>
<stop offset="1" stop-color="#434F9F"/>
</linearGradient>
<linearGradient id="paint1_linear_52660_9062" x1="18.9982" y1="20.1504" x2="18.9982" y2="34.1935" gradientUnits="userSpaceOnUse">
<stop stop-color="#3447C4"/>
<stop offset="1" stop-color="#434F9F"/>
</linearGradient>
<linearGradient id="paint2_linear_52660_9062" x1="32.3442" y1="6.16309" x2="32.3442" y2="11.8594" gradientUnits="userSpaceOnUse">
<stop stop-color="#3447C4"/>
<stop offset="1" stop-color="#434F9F"/>
</linearGradient>
<linearGradient id="paint3_linear_52660_9062" x1="4.66709" y1="14.8608" x2="4.66709" y2="18.07" gradientUnits="userSpaceOnUse">
<stop stop-color="#3447C4"/>
<stop offset="1" stop-color="#434F9F"/>
</linearGradient>
</defs>
</svg>
